# xmcd
#
# Track frame offsets: 
#        150
#        19462
#        41109
#        57115
#        78440
#        91456
#        122694
#        141755
#        162403
#        182139
#
# Disc length: 2664 seconds
#
# Revision: 0
# Processed by: cddbd v1.5.2PL0 Copyright (c) Steve Scherf et al.
# Submitted via: ExactAudioCopy v0.95b4
#
DISCID=870a660a
DTITLE=Joe Purdy - Sessions from motor ave.
DYEAR=2002
DGENRE=Blues
TTITLE0=Faketown
TTITLE1=Come back dow Joe
TTITLE2=It's a wonder
TTITLE3=You don't like me anymore
TTITLE4=California Girl
TTITLE5=Why you
TTITLE6=I'm not what you need
TTITLE7=Lady lonesome
TTITLE8=Goondight to the Westside
TTITLE9=Bonus track
EXTD=
EXTT0=
EXTT1=
EXTT2=
EXTT3=
EXTT4=
EXTT5=
EXTT6=
EXTT7=
EXTT8=
EXTT9=
PLAYORDER=
